<svg width="24" height="24" viewBox="0 0 24 24" fill="none" xmlns="http://www.w3.org/2000/svg">
<path d="M9.05688 10.6459L8.20019 11.5H9.4099H16.9999C17.1325 11.5 17.2597 11.5527 17.3534 11.6464C17.4472 11.7402 17.4999 11.8674 17.4999 12C17.4999 12.1326 17.4472 12.2598 17.3534 12.3536C17.2597 12.4473 17.1325 12.5 16.9999 12.5H9.4099H8.20019L9.05688 13.3541L12.3569 16.6441L12.3578 16.645C12.4047 16.6915 12.4419 16.7468 12.4672 16.8077C12.4926 16.8686 12.5057 16.934 12.5057 17C12.5057 17.066 12.4926 17.1314 12.4672 17.1923C12.4419 17.2532 12.4047 17.3085 12.3578 17.355L12.3578 17.355L12.3549 17.3579C12.3084 17.4048 12.2531 17.442 12.1922 17.4673C12.1313 17.4927 12.0659 17.5058 11.9999 17.5058C11.9339 17.5058 11.8685 17.4927 11.8076 17.4673C11.7467 17.442 11.6914 17.4048 11.6449 17.3579L11.6434 17.3564L6.64797 12.361C6.60393 12.3141 6.56933 12.2592 6.54608 12.1992L6.54617 12.1992L6.54239 12.19C6.49238 12.0683 6.49238 11.9317 6.54239 11.81L6.54248 11.81L6.54608 11.8008C6.56933 11.7408 6.60393 11.6859 6.64797 11.639L11.6434 6.64356L11.2917 6.29183L11.6435 6.64356C11.738 6.54902 11.8662 6.49591 11.9999 6.49591C12.1336 6.49591 12.2618 6.54902 12.3563 6.64356C12.4509 6.73809 12.504 6.86631 12.504 7C12.504 7.13362 12.4509 7.26177 12.3565 7.35629C12.3564 7.35634 12.3564 7.3564 12.3563 7.35645L9.05688 10.6459Z" fill="#333333" stroke="#333333"/>
</svg>
